<?xml version="1.0" encoding="UTF-8"?>
<svg xmlns="http://www.w3.org/2000/svg" viewBox="0 0 450 450" width="450" height="450">
  <defs>
    
  </defs>
  <rect width="450" height="450" fill="#001a33"/>
  
      <defs>
        <linearGradient id="oceanGradient" x1="0%" y1="0%" x2="0%" y2="100%">
          <stop offset="0%" stop-color="#001a33"/>
          <stop offset="50%" stop-color="#003366"/>
          <stop offset="100%" stop-color="#0066cc"/>
        </linearGradient>
        <linearGradient id="waveGradient1" x1="0%" y1="0%" x2="0%" y2="100%">
          <stop offset="0%" stop-color="#0066cc" stop-opacity="0.6"/>
          <stop offset="100%" stop-color="#003366" stop-opacity="0.8"/>
        </linearGradient>
        <radialGradient id="bubbleGradient" cx="30%" cy="30%" r="70%">
          <stop offset="0%" stop-color="#87ceeb" stop-opacity="0.8"/>
          <stop offset="100%" stop-color="#0066cc" stop-opacity="0.3"/>
        </radialGradient>
        <filter id="waterBlur">
          <feGaussianBlur stdDeviation="0.5"/>
        </filter>
      </defs>
      
      <!-- Ocean background -->
      <rect width="450" height="450" fill="url(#oceanGradient)"/>
      
      <!-- Light rays from surface -->
      <polygon points="100,0 150,200 50,200" fill="#87ceeb" opacity="0.05"/>
      <polygon points="200,0 270,250 130,250" fill="#87ceeb" opacity="0.05"/>
      <polygon points="350,0 420,180 280,180" fill="#87ceeb" opacity="0.04"/>
      
      <!-- Waves -->
      <path d="M 0 320 Q 75 290, 150 320 T 300 320 T 450 320 L 450 450 L 0 450 Z" fill="url(#waveGradient1)" opacity="0.4"/>
      <path d="M 0 350 Q 75 320, 150 350 T 300 350 T 450 350 L 450 450 L 0 450 Z" fill="#0066cc" opacity="0.3"/>
      <path d="M 0 380 Q 75 350, 150 380 T 300 380 T 450 380 L 450 450 L 0 450 Z" fill="#003366" opacity="0.5"/>
      
      <!-- Bubbles -->
      <circle cx="320.80447444648667" cy="389.4280817943189" r="3.76668484186796" fill="url(#bubbleGradient)" opacity="0.29810427738937406"/>
      <circle cx="245.68222379114522" cy="341.0344061940559" r="8.587736078957061" fill="url(#bubbleGradient)" opacity="0.5561665349771481"/>
      <circle cx="417.9827531323416" cy="259.2954500977853" r="4.66627815829707" fill="url(#bubbleGradient)" opacity="0.4831595434838077"/>
      <circle cx="277.46849693270053" cy="187.25009097436043" r="10.560079671620494" fill="url(#bubbleGradient)" opacity="0.2680021077606067"/>
      <circle cx="148.1063165938707" cy="346.4050191070949" r="9.028527604004838" fill="url(#bubbleGradient)" opacity="0.4855264492499486"/>
      <circle cx="114.95729978756914" cy="127.05578546306697" r="3.3624211740109686" fill="url(#bubbleGradient)" opacity="0.5329560655351618"/>
      <circle cx="295.4697347412442" cy="258.0376861851405" r="9.355345609087697" fill="url(#bubbleGradient)" opacity="0.47536158519668903"/>
      <circle cx="409.98075251028104" cy="273.7191255759036" r="3.2069934783682736" fill="url(#bubbleGradient)" opacity="0.472399007709209"/>
      <circle cx="100.54872493772615" cy="200.0791833853295" r="9.159042955050007" fill="url(#bubbleGradient)" opacity="0.3246438443119967"/>
      <circle cx="319.2225557973356" cy="191.5588047816824" r="10.552298559809525" fill="url(#bubbleGradient)" opacity="0.36063093417371644"/>
      <circle cx="341.0312826071749" cy="224.58770669160288" r="3.310993827441987" fill="url(#bubbleGradient)" opacity="0.40584635140757197"/>
      <circle cx="125.64858387082154" cy="317.5576738702887" r="8.74970942062755" fill="url(#bubbleGradient)" opacity="0.3772406815003466"/>
      <circle cx="87.429327033564" cy="242.60343972169548" r="5.873441717460688" fill="url(#bubbleGradient)" opacity="0.3440873381597032"/>
      <circle cx="33.003283079031576" cy="252.4947353221176" r="9.465369499691667" fill="url(#bubbleGradient)" opacity="0.2869423619240067"/>
      <circle cx="378.6092261311034" cy="277.58467216412123" r="9.483722428736595" fill="url(#bubbleGradient)" opacity="0.42684377615617"/>
      
      <!-- Clock face (bubble-like) -->
      <circle cx="225" cy="225" r="150" fill="rgba(0,51,102,0.6)" stroke="#87ceeb" stroke-width="2" opacity="0.8"/>
      <circle cx="225" cy="225" r="145" fill="none" stroke="#00ffff" stroke-width="1" opacity="0.5"/>
      
      <!-- Hour markers (shell-like) -->
      <line x1="225" y1="90" x2="225" y2="105" stroke="#87ceeb" stroke-width="4" stroke-linecap="round"/>
  <line x1="292.5" y1="108.0865704891008" x2="285" y2="121.07695154586737" stroke="#87ceeb" stroke-width="2" stroke-linecap="round" opacity="0.6"/>
  <line x1="341.9134295108992" y1="157.5" x2="328.92304845413264" y2="165" stroke="#87ceeb" stroke-width="2" stroke-linecap="round" opacity="0.6"/>
  <line x1="360" y1="225" x2="345" y2="225" stroke="#87ceeb" stroke-width="4" stroke-linecap="round"/>
  <line x1="341.9134295108992" y1="292.5" x2="328.92304845413264" y2="285" stroke="#87ceeb" stroke-width="2" stroke-linecap="round" opacity="0.6"/>
  <line x1="292.5" y1="341.9134295108992" x2="285" y2="328.92304845413264" stroke="#87ceeb" stroke-width="2" stroke-linecap="round" opacity="0.6"/>
  <line x1="225" y1="360" x2="225" y2="345" stroke="#87ceeb" stroke-width="4" stroke-linecap="round"/>
  <line x1="157.50000000000003" y1="341.9134295108992" x2="165.00000000000003" y2="328.92304845413264" stroke="#87ceeb" stroke-width="2" stroke-linecap="round" opacity="0.6"/>
  <line x1="108.08657048910078" y1="292.5" x2="121.07695154586736" y2="285" stroke="#87ceeb" stroke-width="2" stroke-linecap="round" opacity="0.6"/>
  <line x1="90" y1="225.00000000000003" x2="105" y2="225.00000000000003" stroke="#87ceeb" stroke-width="4" stroke-linecap="round"/>
  <line x1="108.0865704891008" y1="157.5" x2="121.07695154586737" y2="165" stroke="#87ceeb" stroke-width="2" stroke-linecap="round" opacity="0.6"/>
  <line x1="157.49999999999994" y1="108.08657048910081" x2="164.99999999999994" y2="121.07695154586739" stroke="#87ceeb" stroke-width="2" stroke-linecap="round" opacity="0.6"/>
      
      <!-- Hour numbers -->
      <text x="225" y="120" fill="#87ceeb" font-size="22" text-anchor="middle" dominant-baseline="middle" font-weight="bold">12</text>
      <text x="330" y="225" fill="#87ceeb" font-size="22" text-anchor="middle" dominant-baseline="middle" font-weight="bold">3</text>
      <text x="225" y="330" fill="#87ceeb" font-size="22" text-anchor="middle" dominant-baseline="middle" font-weight="bold">6</text>
      <text x="120" y="225" fill="#87ceeb" font-size="22" text-anchor="middle" dominant-baseline="middle" font-weight="bold">9</text>
      
      <!-- Clock hands -->
      
    <line x1="225" y1="225" x2="283.5082961295336" y2="170.4401311950001" stroke="#87ceeb" stroke-width="8" stroke-linecap="round"/>
    <line x1="225" y1="225" x2="179.55851271930035" y2="325.17520268867946" stroke="#87ceeb" stroke-width="4" stroke-linecap="round"/>
    <line x1="225" y1="225" x2="277.87576359985405" y2="106.23909050646189" stroke="#00ffff" stroke-width="2" stroke-linecap="round"/>
    <circle cx="225" cy="225" r="10" fill="#00ffff" stroke="#ffffff" stroke-width="2" opacity="1"/>
  
      
      <!-- Depth indicator -->
      <text x="50" y="420" fill="#87ceeb" font-size="12" opacity="0.6" font-family="'Courier New', monospace">
        DEPTH: 42m
      </text>
    
</svg>