<?xml version="1.0" encoding="UTF-8"?>
<svg xmlns="http://www.w3.org/2000/svg" viewBox="0 0 450 450" width="450" height="450">
  <defs>
    
  </defs>
  <rect width="450" height="450" fill="#0d0221"/>
  
      <defs>
        <radialGradient id="nebula1" cx="30%" cy="30%" r="60%">
          <stop offset="0%" stop-color="#5c2d91" stop-opacity="0.4"/>
          <stop offset="100%" stop-color="transparent"/>
        </radialGradient>
        <radialGradient id="nebula2" cx="70%" cy="70%" r="50%">
          <stop offset="0%" stop-color="#1e3a8a" stop-opacity="0.3"/>
          <stop offset="100%" stop-color="transparent"/>
        </radialGradient>
        <radialGradient id="planetGlow" cx="50%" cy="50%" r="50%">
          <stop offset="0%" stop-color="#ffd700" stop-opacity="0.8"/>
          <stop offset="70%" stop-color="#ffd700" stop-opacity="0.3"/>
          <stop offset="100%" stop-color="transparent"/>
        </radialGradient>
        <filter id="starGlow">
          <feGaussianBlur stdDeviation="1" result="blur"/>
          <feMerge>
            <feMergeNode in="blur"/>
            <feMergeNode in="SourceGraphic"/>
          </feMerge>
        </filter>
      </defs>
      
      <!-- Background -->
      <rect width="450" height="450" fill="#0d0221"/>
      
      <!-- Nebula effects -->
      <ellipse cx="100" cy="100" rx="200" ry="150" fill="url(#nebula1)"/>
      <ellipse cx="380" cy="380" rx="150" ry="120" fill="url(#nebula2)"/>
      
      <!-- Stars -->
      <g filter="url(#starGlow)">
        <circle cx="327.0401200322837" cy="194.2145593553379" r="0.8387348644169368" fill="#ffffff" opacity="0.4762191881496664"/>
      <circle cx="218.7454136456661" cy="447.45119622814383" r="1.7492594989968895" fill="#ffffff" opacity="0.34240410811471234"/>
      <circle cx="128.37256097698292" cy="217.43204650463542" r="0.594651757433339" fill="#ffffff" opacity="0.4079427917121278"/>
      <circle cx="83.31297304293336" cy="225.30684088982787" r="1.5911078796516565" fill="#ffffff" opacity="0.2571940518108946"/>
      <circle cx="186.1611809613026" cy="247.54257023397324" r="2.2926695349272093" fill="#ffffff" opacity="0.8100657144975021"/>
      <circle cx="176.72910301286774" cy="145.5901958150746" r="2.1476390107886743" fill="#ffffff" opacity="0.5002624393032522"/>
      <circle cx="441.2360584725532" cy="337.4243694348123" r="1.7617025128856945" fill="#ffffff" opacity="0.23120985905290325"/>
      <circle cx="32.20435719394577" cy="366.51070799283326" r="2.3891418456255997" fill="#ffffff" opacity="0.937100295188128"/>
      <circle cx="364.8086339790768" cy="276.2433202228848" r="0.7787240604041199" fill="#ffffff" opacity="0.8370138605409931"/>
      <circle cx="232.161037988014" cy="192.75749450247417" r="1.9152191547879749" fill="#ffffff" opacity="0.6863473188775974"/>
      <circle cx="290.47967144056577" cy="365.22229002557384" r="0.683654186333079" fill="#ffffff" opacity="0.38334339966488057"/>
      <circle cx="182.251826642739" cy="286.60266954708067" r="0.8774430648982015" fill="#ffffff" opacity="0.5560988316899081"/>
      <circle cx="244.8309012289261" cy="117.88355426505144" r="2.322832853573098" fill="#ffffff" opacity="0.9730713237554174"/>
      <circle cx="125.46243753549172" cy="41.29967022128495" r="1.8019351870920843" fill="#ffffff" opacity="0.3399289716469829"/>
      <circle cx="373.87045224757566" cy="116.96023091188675" r="1.9598439157894716" fill="#ffffff" opacity="0.9663474132989518"/>
      <circle cx="10.944501143707386" cy="391.45752552917935" r="2.1431229215613237" fill="#ffffff" opacity="0.3041308573237547"/>
      <circle cx="103.68985428400147" cy="334.82728328359497" r="1.3088996140738192" fill="#ffffff" opacity="0.3081570608258584"/>
      <circle cx="298.6174066712794" cy="448.5886459887758" r="2.1383992502378733" fill="#ffffff" opacity="0.584996922953725"/>
      <circle cx="175.75098326043866" cy="366.46559271713147" r="2.031309954357583" fill="#ffffff" opacity="0.5500627892072982"/>
      <circle cx="229.0014917107885" cy="150.04640147342917" r="2.435831100519621" fill="#ffffff" opacity="0.6462557004187268"/>
      <circle cx="48.30601491203702" cy="233.78751044153225" r="2.1520312549013396" fill="#ffffff" opacity="0.5618624822264394"/>
      <circle cx="262.2657649678177" cy="201.50430927029632" r="0.7209866008204724" fill="#ffffff" opacity="0.22594312677109302"/>
      <circle cx="436.2283009483803" cy="94.74837746389436" r="0.7294079815682308" fill="#ffffff" opacity="0.27606851492906836"/>
      <circle cx="366.48817959204297" cy="160.2737138810408" r="1.625757958073038" fill="#ffffff" opacity="0.887255102720238"/>
      <circle cx="187.48121364008992" cy="119.21496110835042" r="1.599149619953014" fill="#ffffff" opacity="0.7962817615567579"/>
      <circle cx="382.51245196559177" cy="413.9271612661777" r="0.688774625567814" fill="#ffffff" opacity="0.7888423261214965"/>
      <circle cx="281.46844001541604" cy="444.8848064186895" r="1.9101443080851173" fill="#ffffff" opacity="0.548610320277821"/>
      <circle cx="378.48560478691246" cy="136.98180687672195" r="1.3523049276755517" fill="#ffffff" opacity="0.9293038165512937"/>
      <circle cx="331.2358198877427" cy="45.77797519062099" r="1.5754991022876013" fill="#ffffff" opacity="0.34333445969777066"/>
      <circle cx="380.38575864930067" cy="119.5767238666691" r="0.949298774714392" fill="#ffffff" opacity="0.29278615720861656"/>
      <circle cx="239.43353919767284" cy="424.0288349499747" r="2.00570839057247" fill="#ffffff" opacity="0.8852018277175524"/>
      <circle cx="449.79233753159053" cy="202.69916708396195" r="0.6308092140239991" fill="#ffffff" opacity="0.2961666573474224"/>
      <circle cx="57.130559998931695" cy="285.381641050201" r="1.3106474625911" fill="#ffffff" opacity="0.7409965904501374"/>
      <circle cx="114.64000295988566" cy="353.1620162259322" r="1.3867735791676017" fill="#ffffff" opacity="0.44810266124252945"/>
      <circle cx="172.5259259988987" cy="211.5550696352874" r="1.980394995776812" fill="#ffffff" opacity="0.6427854808352764"/>
      <circle cx="312.15041606077114" cy="337.639205849447" r="0.6529563386734023" fill="#ffffff" opacity="0.8763798758172294"/>
      <circle cx="50.813100102068084" cy="115.34858749397284" r="0.818918576131507" fill="#ffffff" opacity="0.4341972484221346"/>
      <circle cx="292.18004282409396" cy="378.6369448687919" r="1.410174375226879" fill="#ffffff" opacity="0.9107708217889983"/>
      <circle cx="402.55748653883745" cy="327.0032681573386" r="1.287817533895467" fill="#ffffff" opacity="0.4186484914851081"/>
      <circle cx="307.6656579829132" cy="156.1317995938747" r="1.92640096066107" fill="#ffffff" opacity="0.9658501726867874"/>
      <circle cx="178.7454208234596" cy="358.6436048747645" r="0.5355967703755096" fill="#ffffff" opacity="0.8987264719309993"/>
      <circle cx="433.05370564221414" cy="76.02775150253717" r="1.0335542199598522" fill="#ffffff" opacity="0.9192032371397527"/>
      <circle cx="352.13506659876674" cy="284.7748275889111" r="2.0718700023172905" fill="#ffffff" opacity="0.6039305606676302"/>
      <circle cx="179.51709406705493" cy="242.10613308694872" r="1.977349358155831" fill="#ffffff" opacity="0.9555096407912602"/>
      <circle cx="262.67038377347126" cy="422.8587043750367" r="1.2491748873349326" fill="#ffffff" opacity="0.8975302161158545"/>
      <circle cx="132.6183268953422" cy="187.76401847693495" r="1.0723675274190674" fill="#ffffff" opacity="0.7090902810843087"/>
      <circle cx="69.11810163343304" cy="307.51430703486125" r="0.8667914041444713" fill="#ffffff" opacity="0.3802037930698724"/>
      <circle cx="235.50506326483375" cy="335.1735598165018" r="1.9336141467372232" fill="#ffffff" opacity="0.573501634098462"/>
      <circle cx="259.00736707078676" cy="199.89565319344993" r="2.4267673681584627" fill="#ffffff" opacity="0.3237840296869465"/>
      <circle cx="156.77380433043743" cy="115.03116036442633" r="1.4389835302132434" fill="#ffffff" opacity="0.7173278439024171"/>
      </g>
      
      <!-- Large decorative stars -->
      <polygon points="80,80 83,90 93,90 85,97 88,107 80,100 72,107 75,97 67,90 77,90" 
               fill="#ffffff" opacity="0.9"/>
      <polygon points="370,120 372,127 379,127 373,132 375,139 370,134 365,139 367,132 361,127 368,127" 
               fill="#ffffff" opacity="0.7" transform="scale(0.8) translate(80, -20)"/>
      
      <!-- Planet decoration -->
      <circle cx="380" cy="80" r="25" fill="url(#planetGlow)"/>
      <circle cx="380" cy="80" r="18" fill="#ffd700" opacity="0.6"/>
      
      <!-- Clock ring (orbit) -->
      <circle cx="225" cy="225" r="160" fill="none" stroke="#ffffff" stroke-width="1" opacity="0.2"/>
      <circle cx="225" cy="225" r="180" fill="none" stroke="#ffffff" stroke-width="0.5" opacity="0.15" stroke-dasharray="5 10"/>
      
      <!-- Constellation hour markers -->
      <line x1="225" y1="80" x2="225" y2="90" stroke="#ffffff" stroke-width="4" stroke-linecap="round"/>
  <line x1="297.5" y1="99.4263164512564" x2="292.5" y2="108.0865704891008" stroke="#ffffff" stroke-width="2" stroke-linecap="round" opacity="0.6"/>
  <line x1="350.5736835487436" y1="152.5" x2="341.9134295108992" y2="157.5" stroke="#ffffff" stroke-width="2" stroke-linecap="round" opacity="0.6"/>
  <line x1="370" y1="225" x2="360" y2="225" stroke="#ffffff" stroke-width="4" stroke-linecap="round"/>
  <line x1="350.5736835487436" y1="297.5" x2="341.9134295108992" y2="292.5" stroke="#ffffff" stroke-width="2" stroke-linecap="round" opacity="0.6"/>
  <line x1="297.5" y1="350.5736835487436" x2="292.5" y2="341.9134295108992" stroke="#ffffff" stroke-width="2" stroke-linecap="round" opacity="0.6"/>
  <line x1="225" y1="370" x2="225" y2="360" stroke="#ffffff" stroke-width="4" stroke-linecap="round"/>
  <line x1="152.50000000000003" y1="350.5736835487436" x2="157.50000000000003" y2="341.9134295108992" stroke="#ffffff" stroke-width="2" stroke-linecap="round" opacity="0.6"/>
  <line x1="99.42631645125638" y1="297.5" x2="108.08657048910078" y2="292.5" stroke="#ffffff" stroke-width="2" stroke-linecap="round" opacity="0.6"/>
  <line x1="80" y1="225.00000000000003" x2="90" y2="225.00000000000003" stroke="#ffffff" stroke-width="4" stroke-linecap="round"/>
  <line x1="99.4263164512564" y1="152.5" x2="108.0865704891008" y2="157.5" stroke="#ffffff" stroke-width="2" stroke-linecap="round" opacity="0.6"/>
  <line x1="152.49999999999994" y1="99.42631645125643" x2="157.49999999999994" y2="108.08657048910081" stroke="#ffffff" stroke-width="2" stroke-linecap="round" opacity="0.6"/>
      
      <!-- Zodaic-style hour indicators -->
      <circle cx="225" cy="110" r="15" fill="rgba(255,255,255,0.1)" stroke="#ffffff" stroke-width="1"/>
                <text x="225" y="110" fill="#ffffff" font-size="12" text-anchor="middle" dominant-baseline="middle">12</text>
      <circle cx="340" cy="225" r="15" fill="rgba(255,255,255,0.1)" stroke="#ffffff" stroke-width="1"/>
                <text x="340" y="225" fill="#ffffff" font-size="12" text-anchor="middle" dominant-baseline="middle">3</text>
      <circle cx="225" cy="340" r="15" fill="rgba(255,255,255,0.1)" stroke="#ffffff" stroke-width="1"/>
                <text x="225" y="340" fill="#ffffff" font-size="12" text-anchor="middle" dominant-baseline="middle">6</text>
      <circle cx="110" cy="225" r="15" fill="rgba(255,255,255,0.1)" stroke="#ffffff" stroke-width="1"/>
                <text x="110" y="225" fill="#ffffff" font-size="12" text-anchor="middle" dominant-baseline="middle">9</text>
      
      <!-- Clock hands -->
      
    <line x1="225" y1="225" x2="287.6086525481931" y2="175.19882906899045" stroke="#ffffff" stroke-width="8" stroke-linecap="round"/>
    <line x1="225" y1="225" x2="116.26567245104482" y2="241.63869022719422" stroke="#ffffff" stroke-width="4" stroke-linecap="round"/>
    <line x1="225" y1="225" x2="184.82779073125684" y2="348.63734711837" stroke="#ffd700" stroke-width="2" stroke-linecap="round"/>
    <circle cx="225" cy="225" r="10" fill="#ffd700" stroke="#ffffff" stroke-width="2" opacity="1"/>
  
      
      <!-- Digital overlay -->
      <text x="225" y="340" fill="#ffffff" font-size="16" text-anchor="middle" opacity="0.8" font-family="'Courier New', monospace">
        01:43
      </text>
    
</svg>